<?xml version="1.0" encoding="UTF-8"?><svg xmlns="http://www.w3.org/2000/svg" xmlns:xlink="http://www.w3.org/1999/xlink" viewBox="0 0 545 345"><defs><style>.cls-1{fill:#88aadb;font-family:Montserrat-ExtraBold, Montserrat;font-size:71.76px;}.cls-2{stroke:url(#linear-gradient-27);}.cls-2,.cls-3,.cls-4,.cls-5,.cls-6,.cls-7,.cls-8,.cls-9,.cls-10,.cls-11,.cls-12,.cls-13,.cls-14,.cls-15,.cls-16,.cls-17,.cls-18,.cls-19,.cls-20,.cls-21{fill:none;stroke-linecap:round;}.cls-2,.cls-3,.cls-4,.cls-5,.cls-6,.cls-7,.cls-8,.cls-9,.cls-10,.cls-11,.cls-12,.cls-13,.cls-14,.cls-15,.cls-16,.cls-18,.cls-19,.cls-21{stroke-miterlimit:10;}.cls-2,.cls-3,.cls-4,.cls-5,.cls-6,.cls-7,.cls-8,.cls-9,.cls-10,.cls-11,.cls-12,.cls-13,.cls-15,.cls-16,.cls-17,.cls-18,.cls-19,.cls-21{stroke-width:.81px;}.cls-3{stroke:url(#linear-gradient-29);}.cls-4{stroke:url(#linear-gradient-24);}.cls-5{stroke:url(#linear-gradient-32);}.cls-6{stroke:url(#linear-gradient-39);}.cls-7{stroke:url(#linear-gradient-34);}.cls-8{stroke:url(#linear-gradient-37);}.cls-9{stroke:url(#linear-gradient-22);}.cls-10{stroke:url(#linear-gradient-44);}.cls-11{stroke:url(#linear-gradient-42);}.cls-12{stroke:url(#linear-gradient-28);stroke-dasharray:0 0 2.41 2.41;}.cls-22{fill:url(#linear-gradient-3);}.cls-22,.cls-23,.cls-24,.cls-25,.cls-26{opacity:.5;}.cls-22,.cls-23,.cls-24,.cls-25,.cls-26,.cls-27{isolation:isolate;}.cls-23{fill:url(#linear-gradient-6);}.cls-24{fill:url(#linear-gradient-4);}.cls-25{fill:url(#linear-gradient-7);}.cls-28,.cls-26{fill:url(#linear-gradient);}.cls-29{fill:#fff;}.cls-30{fill:#ff9e95;}.cls-31{fill:#ff7885;}.cls-32{fill:#d98181;}.cls-33{fill:#e38f8d;}.cls-34{fill:#192c51;}.cls-35{fill:#263574;}.cls-13{stroke:url(#linear-gradient-43);stroke-dasharray:0 0 2.48 2.48;}.cls-14{stroke:url(#linear-gradient-13);stroke-width:.89px;}.cls-15{stroke:url(#linear-gradient-38);stroke-dasharray:0 0 2.41 2.41;}.cls-16{stroke:url(#linear-gradient-47);stroke-dasharray:0 0 4.07 4.07;}.cls-17{stroke:#232231;}.cls-17,.cls-20{stroke-linejoin:round;}.cls-18{stroke:url(#linear-gradient-23);stroke-dasharray:0 0 2.47 2.47;}.cls-19{stroke:#fff;}.cls-20{stroke:url(#linear-gradient-21);stroke-width:1.63px;}.cls-36{fill:url(#linear-gradient-8);}.cls-37{fill:url(#linear-gradient-9);}.cls-38{fill:url(#linear-gradient-2);}.cls-39{fill:url(#linear-gradient-5);}.cls-40{letter-spacing:0em;}.cls-41{fill:url(#linear-gradient-59);}.cls-42{fill:url(#linear-gradient-57);}.cls-43{fill:url(#linear-gradient-58);}.cls-44{fill:url(#linear-gradient-55);}.cls-45{fill:url(#linear-gradient-56);}.cls-46{fill:url(#linear-gradient-53);}.cls-47{fill:url(#linear-gradient-54);}.cls-48{fill:url(#linear-gradient-51);}.cls-49{fill:url(#linear-gradient-52);}.cls-50{fill:url(#linear-gradient-50);}.cls-51{fill:url(#linear-gradient-77);}.cls-52{fill:url(#linear-gradient-78);}.cls-53{fill:url(#linear-gradient-79);}.cls-54{fill:url(#linear-gradient-74);}.cls-55{fill:url(#linear-gradient-75);}.cls-56{fill:url(#linear-gradient-76);}.cls-57{fill:url(#linear-gradient-70);}.cls-58{fill:url(#linear-gradient-71);}.cls-59{fill:url(#linear-gradient-72);}.cls-60{fill:url(#linear-gradient-73);}.cls-61{fill:url(#linear-gradient-68);}.cls-62{fill:url(#linear-gradient-67);}.cls-63{fill:url(#linear-gradient-69);}.cls-64{fill:url(#linear-gradient-64);}.cls-65{fill:url(#linear-gradient-63);}.cls-66{fill:url(#linear-gradient-66);}.cls-67{fill:url(#linear-gradient-65);}.cls-68{fill:url(#linear-gradient-60);}.cls-69{fill:url(#linear-gradient-62);}.cls-70{fill:url(#linear-gradient-61);}.cls-71{fill:url(#linear-gradient-41);}.cls-72{fill:url(#linear-gradient-40);}.cls-73{fill:url(#linear-gradient-45);}.cls-74{fill:url(#linear-gradient-46);}.cls-75{fill:url(#linear-gradient-49);}.cls-76{fill:url(#linear-gradient-48);}.cls-77{fill:url(#linear-gradient-14);}.cls-78{fill:url(#linear-gradient-18);}.cls-79{fill:url(#linear-gradient-20);}.cls-80{fill:url(#linear-gradient-15);}.cls-81{fill:url(#linear-gradient-19);}.cls-82{fill:url(#linear-gradient-16);}.cls-83{fill:url(#linear-gradient-17);}.cls-84{fill:url(#linear-gradient-12);}.cls-85{fill:url(#linear-gradient-10);}.cls-86{fill:url(#linear-gradient-26);}.cls-87{fill:url(#linear-gradient-35);}.cls-88{fill:url(#linear-gradient-36);}.cls-89{fill:url(#linear-gradient-25);}.cls-90{fill:url(#linear-gradient-30);}.cls-91{fill:url(#linear-gradient-31);}.cls-92{fill:url(#linear-gradient-11);mix-blend-mode:multiply;}.cls-21{stroke:url(#linear-gradient-33);stroke-dasharray:0 0 2.46 2.46;}</style><linearGradient id="linear-gradient" x1="93.52" y1="164.02" x2="475.35" y2="164.02" gradientUnits="userSpaceOnUse"><stop offset="0" stop-color="#dbecf2"/><stop offset="1" stop-color="#e3f7ff"/></linearGradient><linearGradient id="linear-gradient-2" x1="432.91" y1="-18448.77" x2="432.91" y2="-18594.73" gradientTransform="translate(0 -18410.07) scale(1 -1)" xlink:href="#linear-gradient"/><linearGradient id="linear-gradient-3" x1="66.35" y1="301.52" x2="90.67" y2="301.52" xlink:href="#linear-gradient"/><linearGradient id="linear-gradient-4" x1="88.91" y1="270.58" x2="98.15" y2="270.58" xlink:href="#linear-gradient"/><linearGradient id="linear-gradient-5" x1="474.23" y1="-18716.22" x2="486.24" y2="-18703.38" gradientTransform="translate(0 -18410.07) scale(1 -1)" xlink:href="#linear-gradient"/><linearGradient id="linear-gradient-6" x1="98.35" y1="294.37" x2="108.98" y2="294.37" xlink:href="#linear-gradient"/><linearGradient id="linear-gradient-7" x1="240.87" y1="49.41" x2="251.5" y2="49.41" xlink:href="#linear-gradient"/><linearGradient id="linear-gradient-8" x1="374.36" y1="129.21" x2="295.61" y2="52.09" gradientUnits="userSpaceOnUse"><stop offset="0" stop-color="#3945b8"/><stop offset="1" stop-color="#44a4fd"/></linearGradient><linearGradient id="linear-gradient-9" x1="282.93" y1="80.09" x2="282.93" y2="275.62" gradientUnits="userSpaceOnUse"><stop offset="0" stop-color="#c5e0f3"/><stop offset="1" stop-color="#a4d2ef"/></linearGradient><linearGradient id="linear-gradient-10" x1="282.93" y1="272.76" x2="282.93" y2="317.98" xlink:href="#linear-gradient-9"/><linearGradient id="linear-gradient-11" x1="261.88" y1="-18695.35" x2="303.98" y2="-18695.35" gradientTransform="translate(0 -18410.07) scale(1 -1)" xlink:href="#linear-gradient-9"/><linearGradient id="linear-gradient-12" x1="282.93" y1="310.24" x2="282.93" y2="324.11" xlink:href="#linear-gradient-9"/><linearGradient id="linear-gradient-13" x1="199.83" y1="175.65" x2="366.03" y2="175.65" gradientUnits="userSpaceOnUse"><stop offset="0" stop-color="#49d3fd"/><stop offset="1" stop-color="#07b9fd"/></linearGradient><linearGradient id="linear-gradient-14" x1="136.7" y1="231.65" x2="136.7" y2="309.55" xlink:href="#linear-gradient-13"/><linearGradient id="linear-gradient-15" x1="136.7" y1="320.72" x2="136.7" y2="311.13" xlink:href="#linear-gradient-9"/><linearGradient id="linear-gradient-16" x1="136.7" y1="316.25" x2="136.7" y2="218.45" xlink:href="#linear-gradient"/><linearGradient id="linear-gradient-17" x1="145.3" y1="316.25" x2="145.3" y2="218.45" xlink:href="#linear-gradient"/><linearGradient id="linear-gradient-18" x1="136.7" y1="295" x2="136.7" y2="253.62" xlink:href="#linear-gradient"/><linearGradient id="linear-gradient-19" x1="136.49" y1="291.95" x2="136.49" y2="233.47" gradientUnits="userSpaceOnUse"><stop offset="0" stop-color="#263574"/><stop offset="1" stop-color="#15175e"/></linearGradient><linearGradient id="linear-gradient-20" x1="409.01" y1="255.25" x2="409.01" y2="313.5" xlink:href="#linear-gradient-13"/><linearGradient id="linear-gradient-21" x1="109.47" y1="73.91" x2="210.4" y2="73.91" xlink:href="#linear-gradient-13"/><linearGradient id="linear-gradient-22" x1="136.3" y1="231.42" x2="200.68" y2="231.42" xlink:href="#linear-gradient-13"/><linearGradient id="linear-gradient-23" x1="136.3" y1="203.05" x2="200.68" y2="203.05" xlink:href="#linear-gradient-13"/><linearGradient id="linear-gradient-24" x1="136.3" y1="177.75" x2="200.68" y2="177.75" xlink:href="#linear-gradient-13"/><linearGradient id="linear-gradient-25" x1="198.16" y1="177.58" x2="202.39" y2="177.58" xlink:href="#linear-gradient-13"/><linearGradient id="linear-gradient-26" x1="133.55" y1="232.03" x2="139.86" y2="232.03" xlink:href="#linear-gradient-13"/><linearGradient id="linear-gradient-27" x1="216.31" y1="78.61" x2="216.31" y2="139.69" xlink:href="#linear-gradient-13"/><linearGradient id="linear-gradient-28" x1="242.69" y1="78.61" x2="242.69" y2="139.69" xlink:href="#linear-gradient-13"/><linearGradient id="linear-gradient-29" x1="266.04" y1="78.61" x2="266.04" y2="139.69" xlink:href="#linear-gradient-13"/><linearGradient id="linear-gradient-30" x1="1288.8" y1="-1199.76" x2="1293.04" y2="-1199.76" gradientTransform="translate(-933.72 -1151.64) rotate(90)" xlink:href="#linear-gradient-13"/><linearGradient id="linear-gradient-31" x1="1227.5" y1="-1149.42" x2="1233.82" y2="-1149.42" gradientTransform="translate(-933.72 -1151.64) rotate(90)" xlink:href="#linear-gradient-13"/><linearGradient id="linear-gradient-32" x1="219.93" y1="211.61" x2="219.93" y2="281.39" xlink:href="#linear-gradient-13"/><linearGradient id="linear-gradient-33" x1="219.93" y1="211.61" x2="219.93" y2="281.39" xlink:href="#linear-gradient-13"/><linearGradient id="linear-gradient-34" x1="219.93" y1="211.61" x2="219.93" y2="281.39" xlink:href="#linear-gradient-13"/><linearGradient id="linear-gradient-35" x1="1429.47" y1="-1153.83" x2="1435.78" y2="-1153.83" gradientTransform="translate(-933.72 -1151.64) rotate(90)" xlink:href="#linear-gradient-13"/><linearGradient id="linear-gradient-36" x1="1361.54" y1="-1153.66" x2="1365.78" y2="-1153.66" gradientTransform="translate(-933.72 -1151.64) rotate(90)" xlink:href="#linear-gradient-13"/><linearGradient id="linear-gradient-37" x1="366.19" y1="159.51" x2="366.19" y2="179.68" xlink:href="#linear-gradient-13"/><linearGradient id="linear-gradient-38" x1="375.37" y1="159.51" x2="375.37" y2="179.68" xlink:href="#linear-gradient-13"/><linearGradient id="linear-gradient-39" x1="381.52" y1="159.51" x2="381.52" y2="179.68" xlink:href="#linear-gradient-13"/><linearGradient id="linear-gradient-40" x1="1502.1" y1="-1038.13" x2="1508.42" y2="-1038.13" gradientTransform="translate(-656.61 -1325.99) rotate(90)" xlink:href="#linear-gradient-13"/><linearGradient id="linear-gradient-41" x1="1483.78" y1="-1022.19" x2="1488.02" y2="-1022.19" gradientTransform="translate(-656.61 -1325.99) rotate(90)" xlink:href="#linear-gradient-13"/><linearGradient id="linear-gradient-42" x1="329.18" y1="211.61" x2="329.18" y2="304.81" xlink:href="#linear-gradient-13"/><linearGradient id="linear-gradient-43" x1="340.68" y1="211.61" x2="340.68" y2="304.81" xlink:href="#linear-gradient-13"/><linearGradient id="linear-gradient-44" x1="354.02" y1="211.61" x2="354.02" y2="304.81" xlink:href="#linear-gradient-13"/><linearGradient id="linear-gradient-45" x1="329.18" y1="209.9" x2="329.18" y2="214.14" xlink:href="#linear-gradient-13"/><linearGradient id="linear-gradient-46" x1="354.63" y1="301.24" x2="354.63" y2="307.56" xlink:href="#linear-gradient-13"/><linearGradient id="linear-gradient-47" x1="352.83" y1="117.57" x2="406.04" y2="117.57" xlink:href="#linear-gradient-13"/><linearGradient id="linear-gradient-48" x1="380.8" y1="103.99" x2="380.8" y2="128.35" xlink:href="#linear-gradient-13"/><linearGradient id="linear-gradient-49" x1="368.51" y1="103.99" x2="368.51" y2="128.35" xlink:href="#linear-gradient-13"/><linearGradient id="linear-gradient-50" x1="393.08" y1="103.99" x2="393.08" y2="128.35" xlink:href="#linear-gradient-13"/><linearGradient id="linear-gradient-51" x1="413.91" y1="224.7" x2="413.91" y2="316.22" xlink:href="#linear-gradient-19"/><linearGradient id="linear-gradient-52" x1="397.16" y1="168.93" x2="397.16" y2="189.97" gradientUnits="userSpaceOnUse"><stop offset="0" stop-color="#16a4fd"/><stop offset="1" stop-color="#0069f3"/></linearGradient><linearGradient id="linear-gradient-53" x1="412.75" y1="168.89" x2="412.75" y2="221.59" xlink:href="#linear-gradient-52"/><linearGradient id="linear-gradient-54" x1="384.29" y1="178.96" x2="384.29" y2="219.77" xlink:href="#linear-gradient-13"/><linearGradient id="linear-gradient-55" x1="427.66" y1="168.89" x2="427.66" y2="221.59" xlink:href="#linear-gradient-52"/><linearGradient id="linear-gradient-56" x1="131.35" y1="65.96" x2="193.88" y2="88.16" xlink:href="#linear-gradient-13"/><linearGradient id="linear-gradient-57" x1="128.95" y1="72.72" x2="191.48" y2="94.92" xlink:href="#linear-gradient-13"/><linearGradient id="linear-gradient-58" x1="126.11" y1="80.73" x2="188.63" y2="102.93" xlink:href="#linear-gradient-13"/><linearGradient id="linear-gradient-59" x1="128.67" y1="73.52" x2="191.2" y2="95.71" xlink:href="#linear-gradient-13"/><linearGradient id="linear-gradient-60" x1="131.5" y1="65.54" x2="194.03" y2="87.74" xlink:href="#linear-gradient-13"/><linearGradient id="linear-gradient-61" x1="139.41" y1="149.2" x2="139.41" y2="130.64" xlink:href="#linear-gradient-9"/><linearGradient id="linear-gradient-62" x1="139.41" y1="149.2" x2="139.41" y2="130.64" xlink:href="#linear-gradient-9"/><linearGradient id="linear-gradient-63" x1="139.41" y1="149.2" x2="139.41" y2="130.64" xlink:href="#linear-gradient-9"/><linearGradient id="linear-gradient-64" x1="184.61" y1="143.38" x2="149.38" y2="125.25" xlink:href="#linear-gradient-9"/><linearGradient id="linear-gradient-65" x1="181.97" y1="148.51" x2="146.74" y2="130.38" xlink:href="#linear-gradient-9"/><linearGradient id="linear-gradient-66" x1="177.09" y1="157.99" x2="141.86" y2="139.86" xlink:href="#linear-gradient-9"/><linearGradient id="linear-gradient-67" x1="168.41" y1="312.26" x2="243.7" y2="312.26" xlink:href="#linear-gradient-8"/><linearGradient id="linear-gradient-68" x1="173.92" y1="307.79" x2="173.92" y2="315.64" xlink:href="#linear-gradient-13"/><linearGradient id="linear-gradient-69" x1="181.63" y1="307.79" x2="181.63" y2="315.64" xlink:href="#linear-gradient-13"/><linearGradient id="linear-gradient-70" x1="229.04" y1="312.27" x2="172.75" y2="312.27" xlink:href="#linear-gradient-9"/><linearGradient id="linear-gradient-71" x1="229.04" y1="312.26" x2="172.75" y2="312.26" xlink:href="#linear-gradient-9"/><linearGradient id="linear-gradient-72" x1="180.65" y1="318.27" x2="174.24" y2="322.18" gradientUnits="userSpaceOnUse"><stop offset="0" stop-color="#0c166f"/><stop offset="1" stop-color="#3945b8"/></linearGradient><linearGradient id="linear-gradient-73" x1="226.38" y1="318.27" x2="219.97" y2="322.18" xlink:href="#linear-gradient-72"/><linearGradient id="linear-gradient-74" x1="168.41" y1="295.31" x2="243.7" y2="295.31" xlink:href="#linear-gradient-8"/><linearGradient id="linear-gradient-75" x1="170.32" y1="295.31" x2="189.39" y2="295.31" xlink:href="#linear-gradient-9"/><linearGradient id="linear-gradient-76" x1="213.03" y1="291.7" x2="213.03" y2="297.82" xlink:href="#linear-gradient-13"/><linearGradient id="linear-gradient-77" x1="218.92" y1="291.7" x2="218.92" y2="297.82" xlink:href="#linear-gradient-13"/><linearGradient id="linear-gradient-78" x1="180.65" y1="301.32" x2="174.24" y2="305.23" xlink:href="#linear-gradient-72"/><linearGradient id="linear-gradient-79" x1="226.38" y1="301.32" x2="219.97" y2="305.23" xlink:href="#linear-gradient-72"/></defs><g class="cls-27"><g id="Layer_1"><g><g id="freepik--background-simple--inject-3"><path class="cls-28" d="M140.39,320.86s-80.41-95.01-30.59-168.03c49.82-73.02,148.85-22.91,167.69-91.06,18.84-68.15,87.65-79.32,152.89,5.9,65.25,85.22,49.65,203.73,15.1,253.19H140.39Z"/><path class="cls-26" d="M140.39,320.86s-80.41-95.01-30.59-168.03c49.82-73.02,148.85-22.91,167.69-91.06,18.84-68.15,87.65-79.32,152.89,5.9,65.25,85.22,49.65,203.73,15.1,253.19H140.39Z"/></g><path class="cls-38" d="M437.2,64.83c0,2.37-1.92,4.29-4.29,4.29s-4.29-1.92-4.29-4.29,1.92-4.29,4.29-4.29,4.29,1.92,4.29,4.29Z"/><circle class="cls-29" cx="468.05" cy="162.65" r="14.94" transform="translate(22.08 378.6) rotate(-45)"/><path class="cls-22" d="M90.67,301.52c0,6.72-5.44,12.16-12.16,12.16s-12.16-5.44-12.16-12.16,5.44-12.16,12.16-12.16,12.16,5.44,12.16,12.16Z"/><circle class="cls-29" cx="91.3" cy="124.91" r="21.22" transform="translate(-45.1 51.88) rotate(-25.67)"/><g><line class="cls-19" x1="87.41" y1="155.93" x2="166.44" y2="155.93"/><line class="cls-19" x1="445.94" y1="239.88" x2="524.97" y2="239.88"/><line class="cls-19" x1="313.44" y1="49.41" x2="392.46" y2="49.41"/></g><g><path class="cls-24" d="M97.35,269.78h-3.02v-3.02c0-.44-.36-.8-.8-.8s-.8,.36-.8,.8v3.02h-3.02c-.44,0-.8,.36-.8,.8s.36,.8,.8,.8h3.02v3.02c0,.44,.36,.8,.8,.8s.8-.36,.8-.8v-3.02h3.02c.44,0,.8-.36,.8-.8s-.36-.8-.8-.8Z"/><path class="cls-29" d="M451.75,144.55h-4.6v-4.6c0-.67-.54-1.22-1.22-1.22s-1.22,.54-1.22,1.22v4.6h-4.6c-.67,0-1.22,.54-1.22,1.22s.54,1.22,1.22,1.22h4.6v4.6c0,.67,.54,1.22,1.22,1.22s1.22-.54,1.22-1.22v-4.6h4.6c.67,0,1.22-.54,1.22-1.22s-.54-1.22-1.22-1.22Z"/><path class="cls-29" d="M130.47,116.83h-2.81v-2.81c0-.41-.33-.74-.74-.74s-.74,.33-.74,.74v2.81h-2.81c-.41,0-.74,.33-.74,.74s.33,.74,.74,.74h2.81v2.81c0,.41,.33,.74,.74,.74s.74-.33,.74-.74v-2.81h2.81c.41,0,.74-.33,.74-.74s-.33-.74-.74-.74Z"/><path class="cls-39" d="M482.38,300.72h-3.02v-3.02c0-.44-.36-.8-.8-.8s-.8,.36-.8,.8v3.02h-3.02c-.44,0-.8,.36-.8,.8s.36,.8,.8,.8h3.02v3.02c0,.44,.36,.8,.8,.8s.8-.36,.8-.8v-3.02h3.02c.44,0,.8-.36,.8-.8s-.36-.8-.8-.8Z"/></g><g><polygon class="cls-29" points="462.27 208.68 456.96 199.47 451.64 208.68 455.25 208.68 455.25 224.09 458.67 224.09 458.67 208.68 462.27 208.68"/><polygon class="cls-23" points="108.98 291.26 103.67 282.06 98.35 291.26 101.96 291.26 101.96 306.67 105.38 306.67 105.38 291.26 108.98 291.26"/><polygon class="cls-25" points="251.5 46.3 246.18 37.1 240.87 46.3 244.47 46.3 244.47 61.72 247.89 61.72 247.89 46.3 251.5 46.3"/><polygon class="cls-29" points="126.99 183.68 123.57 177.75 120.14 183.68 122.46 183.68 122.46 193.62 124.67 193.62 124.67 183.68 126.99 183.68"/><path class="cls-29" d="M93.53,183.93c-10.47,0-18.99,8.52-18.99,18.99s8.52,18.99,18.99,18.99,18.99-8.52,18.99-18.99-8.52-18.99-18.99-18.99Zm-17.36,23.39h5.24c.38,2.42,1.06,4.67,1.99,6.63h-3.96c-1.52-1.93-2.64-4.18-3.27-6.63Zm34.73-8.79h-5.24c-.38-2.42-1.06-4.67-1.99-6.63h3.96c1.52,1.93,2.64,4.18,3.27,6.63Zm-6.33,0h-5.59c-.16-2.34-.44-4.61-.85-6.63h4.36c.96,1.93,1.68,4.18,2.08,6.63Zm.35,4.4c0,1.13-.07,2.24-.2,3.32h-5.68c.06-1.1,.08-2.21,.08-3.32s-.03-2.21-.08-3.32h5.68c.13,1.08,.2,2.18,.2,3.32Zm-15.81,3.32c-.05-1.07-.08-2.17-.08-3.32s.03-2.25,.08-3.32h8.86c.05,1.07,.08,2.17,.08,3.32s-.03,2.25-.08,3.32h-8.86Zm8.8,1.08c-.17,2.5-.47,4.73-.86,6.63h-7.01c-.39-1.9-.7-4.14-.86-6.63h8.74Zm-15.75-4.4c0-1.13,.07-2.24,.2-3.32h5.68c-.06,1.1-.08,2.21-.08,3.32s.03,2.21,.08,3.32h-5.68c-.13-1.08-.2-2.18-.2-3.32Zm7.02-4.4c.17-2.5,.47-4.73,.86-6.63h7.01c.39,1.9,.7,4.14,.86,6.63h-8.74Zm8.73-7.71c-.54-2.32-1.25-4.24-2.13-5.46,2.41,.76,4.55,2.71,6.15,5.46h-4.02Zm-1.1,0h-6.53c.88-3.65,2.11-5.8,3.26-5.8s2.38,2.16,3.26,5.8Zm-7.63,0h-4.02c1.6-2.74,3.74-4.7,6.15-5.46-.88,1.22-1.59,3.14-2.13,5.46Zm-.23,1.08c-.4,2.02-.69,4.29-.85,6.63h-5.59c.39-2.45,1.11-4.7,2.08-6.63h4.36Zm-7.53,6.63h-5.24c.62-2.45,1.75-4.7,3.27-6.63h3.96c-.92,1.97-1.61,4.21-1.99,6.63Zm-.15,1.08c-.13,1.08-.19,2.18-.19,3.32s.07,2.24,.19,3.32h-5.33c-.2-1.08-.31-2.18-.31-3.32s.11-2.24,.31-3.32h5.33Zm1.23,7.71h5.59c.16,2.34,.44,4.61,.85,6.63h-4.36c-.96-1.93-1.68-4.18-2.08-6.63Zm6.67,7.71c.54,2.32,1.25,4.24,2.13,5.46-2.41-.76-4.55-2.71-6.15-5.46h4.02Zm1.1,0h6.53c-.88,3.65-2.11,5.8-3.26,5.8s-2.38-2.16-3.26-5.8Zm7.63,0h4.02c-1.6,2.74-3.74,4.7-6.15,5.46,.88-1.22,1.59-3.14,2.13-5.46Zm.23-1.08c.4-2.02,.69-4.29,.85-6.63h5.59c-.39,2.45-1.11,4.7-2.08,6.63h-4.36Zm7.53-6.63h5.24c-.62,2.45-1.75,4.7-3.27,6.63h-3.96c.92-1.97,1.61-4.21,1.99-6.63Zm.15-1.08c.13-1.08,.19-2.18,.19-3.32s-.07-2.24-.19-3.32h5.33c.2,1.08,.31,2.18,.31,3.32s-.11,2.24-.31,3.32h-5.33Zm.92-15.42h-3.59c-1.12-2.06-2.52-3.75-4.11-4.94,2.98,.96,5.63,2.69,7.7,4.94Zm-18.67-4.94c-1.59,1.19-2.99,2.88-4.11,4.94h-3.59c2.07-2.26,4.72-3.98,7.71-4.94Zm-7.71,29.16h3.59c1.12,2.06,2.52,3.75,4.11,4.94-2.99-.96-5.63-2.69-7.71-4.94Zm18.67,4.94c1.59-1.19,2.99-2.88,4.11-4.94h3.59c-2.07,2.26-4.72,3.98-7.7,4.94Z"/></g><g><path class="cls-36" d="M366.4,92.99v-8.17c0-.8-.65-1.45-1.45-1.45h-2.1c-.62,0-1.16-.42-1.3-1.02-.73-3.17-1.97-6.15-3.64-8.83-.33-.54-.27-1.23,.18-1.67l1.48-1.48c.57-.57,.57-1.48,0-2.05l-5.78-5.78c-.57-.57-1.48-.57-2.05,0l-1.48,1.48c-.45,.45-1.14,.51-1.67,.18-2.68-1.67-5.66-2.91-8.84-3.64-.6-.14-1.02-.68-1.02-1.3v-2.1c0-.8-.65-1.45-1.45-1.45h-8.17c-.8,0-1.45,.65-1.45,1.45v2.1c0,.62-.42,1.16-1.02,1.3-3.18,.73-6.15,1.97-8.84,3.64-.54,.33-1.23,.27-1.67-.18l-1.48-1.48c-.57-.57-1.48-.57-2.05,0l-5.78,5.78c-.57,.57-.57,1.48,0,2.05l1.48,1.48c.45,.45,.51,1.14,.18,1.67-1.67,2.68-2.91,5.66-3.64,8.84-.14,.6-.68,1.02-1.3,1.02h-2.1c-.8,0-1.45,.65-1.45,1.45v8.17c0,.8,.65,1.45,1.45,1.45h2.1c.62,0,1.16,.42,1.3,1.02,.73,3.17,1.97,6.15,3.64,8.83,.33,.54,.27,1.23-.18,1.67l-1.48,1.48c-.57,.57-.57,1.48,0,2.05l5.78,5.78c.57,.57,1.48,.57,2.05,0l1.48-1.48c.45-.45,1.14-.51,1.67-.18,2.68,1.67,5.66,2.91,8.83,3.64,.6,.14,1.02,.68,1.02,1.3v2.11c0,.8,.65,1.45,1.45,1.45h8.17c.8,0,1.45-.65,1.45-1.45v-2.11c0-.62,.42-1.16,1.02-1.3,3.17-.73,6.15-1.97,8.83-3.64,.54-.33,1.23-.27,1.67,.18l1.48,1.48c.57,.57,1.48,.57,2.05,0l5.78-5.78c.57-.57,.57-1.48,0-2.05l-1.48-1.48c-.45-.45-.51-1.14-.18-1.67,1.67-2.68,2.91-5.66,3.64-8.83,.14-.6,.68-1.02,1.3-1.02h2.1c.8,0,1.45-.65,1.45-1.45Zm-33.2,15.07c-10.58,0-19.14-8.58-19.14-19.16s8.56-19.14,19.14-19.14,19.14,8.58,19.14,19.14-8.56,19.16-19.14,19.16Z"/><path class="cls-29" d="M308.73,63.97v-5.1c0-.5-.4-.9-.9-.9h-1.31c-.38,0-.72-.26-.81-.64-.45-1.98-1.23-3.84-2.27-5.51-.21-.33-.17-.76,.11-1.04l.92-.92c.35-.35,.35-.92,0-1.28l-3.6-3.6c-.35-.35-.92-.35-1.28,0l-.92,.92c-.28,.28-.71,.32-1.04,.11-1.67-1.04-3.53-1.82-5.51-2.27-.37-.09-.64-.43-.64-.81v-1.31c0-.5-.4-.9-.9-.9h-5.1c-.5,0-.9,.4-.9,.9v1.31c0,.38-.26,.72-.64,.81-1.98,.45-3.84,1.23-5.51,2.27-.33,.21-.76,.17-1.04-.11l-.92-.92c-.35-.35-.92-.35-1.28,0l-3.6,3.6c-.35,.35-.35,.92,0,1.28l.92,.92c.28,.28,.32,.71,.11,1.04-1.04,1.67-1.82,3.53-2.27,5.51-.09,.37-.43,.64-.81,.64h-1.31c-.5,0-.9,.4-.9,.9v5.1c0,.5,.4,.9,.9,.9h1.31c.38,0,.72,.26,.81,.64,.45,1.98,1.23,3.84,2.27,5.51,.21,.33,.17,.76-.11,1.04l-.92,.92c-.35,.35-.35,.92,0,1.28l3.6,3.6c.35,.35,.92,.35,1.28,0l.92-.92c.28-.28,.71-.32,1.04-.11,1.67,1.04,3.53,1.81,5.51,2.27,.37,.09,.64,.43,.64,.81v1.31c0,.5,.4,.9,.9,.9h5.1c.5,0,.9-.4,.9-.9v-1.32c0-.38,.26-.72,.64-.81,1.98-.45,3.84-1.23,5.51-2.27,.33-.21,.76-.17,1.04,.11l.92,.92c.35,.35,.92,.35,1.28,0l3.6-3.6c.35-.35,.35-.92,0-1.28l-.92-.92c-.28-.28-.32-.71-.11-1.04,1.04-1.67,1.82-3.53,2.27-5.51,.09-.37,.43-.64,.81-.64h1.31c.5,0,.9-.4,.9-.9Zm-20.71,8.04c-5.85,0-10.58-4.74-10.58-10.59s4.73-10.58,10.58-10.58,10.58,4.74,10.58,10.58-4.73,10.59-10.58,10.59Z"/></g><g><rect class="cls-37" x="143.27" y="88.92" width="279.32" height="192.1" rx="20.74" ry="20.74"/><path class="cls-29" d="M415.74,106.55V249.07c0,2.62-2.12,4.74-4.74,4.74H154.86c-2.62,0-4.74-2.12-4.74-4.74V106.55c0-6.26,5.07-11.33,11.33-11.33h242.96c6.26,0,11.33,5.07,11.33,11.33Z"/><polygon class="cls-85" points="309.58 322.01 256.28 322.01 261.88 289.53 263.34 281.03 302.51 281.03 303.98 289.53 309.58 322.01"/><polygon class="cls-92" points="303.98 289.53 261.88 289.53 263.34 281.03 302.51 281.03 303.98 289.53"/><rect class="cls-84" x="238.62" y="315.03" width="88.61" height="6.98"/><rect class="cls-14" x="200.27" y="139.28" width="165.31" height="72.74" rx="11.29" ry="11.29"/></g><g><rect class="cls-77" x="113.7" y="237.57" width="46.01" height="84.06" rx="5.6" ry="5.6"/><rect class="cls-29" x="115.85" y="242.8" width="41.7" height="67.75" rx="2.93" ry="2.93"/><path class="cls-80" d="M141.12,316.18c0,2.44-1.98,4.42-4.42,4.42s-4.42-1.98-4.42-4.42,1.98-4.42,4.42-4.42,4.42,1.98,4.42,4.42Z"/><path class="cls-29" d="M140.51,316.18c0,2.1-1.71,3.81-3.81,3.81s-3.81-1.71-3.81-3.81,1.71-3.81,3.81-3.81,3.81,1.71,3.81,3.81Z"/><path class="cls-82" d="M142.34,241.2h-11.27c-.47,0-.85-.38-.85-.85h0c0-.47,.38-.85,.85-.85h11.27c.47,0,.85,.38,.85,.85h0c0,.47-.38,.85-.85,.85Z"/><path class="cls-83" d="M146.15,240.35c0,.47-.38,.85-.85,.85s-.85-.38-.85-.85,.38-.85,.85-.85,.85,.38,.85,.85Z"/><circle class="cls-78" cx="136.7" cy="276.67" r="13.14"/><path class="cls-81" d="M136.7,281.23c-.42,0-.82-.16-1.13-.46l-12.01-11.56c-.65-.62-.67-1.66-.04-2.3,.62-.65,1.66-.67,2.3-.04l10.55,10.15,10.53-17.2c.47-.77,1.47-1.01,2.24-.54,.77,.47,1.01,1.47,.54,2.24l-11.58,18.93c-.26,.42-.69,.7-1.18,.77-.07,0-.14,.01-.21,.01Z"/></g><path class="cls-79" d="M440.78,285.84c-.27,0-.53,0-.79,.02,0,0,0-.01,0-.02,0-13.34-10.81-24.15-24.15-24.15-10.91,0-20.13,7.24-23.12,17.18-1.04-.34-2.15-.53-3.3-.53-4.83,0-8.9,3.2-10.22,7.6-.64-.07-1.3-.11-1.96-.11-9.88,0-17.88,8.01-17.88,17.88s8.01,17.88,17.88,17.88h63.54c9.88,0,17.88-8.01,17.88-17.88s-8.01-17.88-17.88-17.88Z"/><g><path class="cls-29" d="M191.71,68.1c-.27,0-.53,0-.79,.02,0,0,0-.01,0-.02,0-13.34-10.81-24.15-24.15-24.15-10.91,0-20.13,7.24-23.12,17.18-1.04-.34-2.15-.53-3.3-.53-4.83,0-8.9,3.2-10.22,7.6-.64-.07-1.3-.11-1.96-.11-9.88,0-17.88,8.01-17.88,17.88s8.01,17.88,17.88,17.88h63.54c9.88,0,17.88-8.01,17.88-17.88s-8.01-17.88-17.88-17.88Z"/><path class="cls-20" d="M191.71,68.1c-.27,0-.53,0-.79,.02,0,0,0-.01,0-.02,0-13.34-10.81-24.15-24.15-24.15-10.91,0-20.13,7.24-23.12,17.18-1.04-.34-2.15-.53-3.3-.53-4.83,0-8.9,3.2-10.22,7.6-.64-.07-1.3-.11-1.96-.11-9.88,0-17.88,8.01-17.88,17.88s8.01,17.88,17.88,17.88h63.54c9.88,0,17.88-8.01,17.88-17.88s-8.01-17.88-17.88-17.88Z"/></g><g><g><g><line class="cls-9" x1="136.7" y1="232.03" x2="136.7" y2="230.81"/><path class="cls-18" d="M136.7,228.34v-40.25c0-5.71,4.63-10.34,10.34-10.34h50.78"/><line class="cls-4" x1="199.05" y1="177.75" x2="200.27" y2="177.75"/></g><circle class="cls-89" cx="200.27" cy="177.58" r="2.12"/><circle class="cls-86" cx="136.7" cy="232.03" r="3.16"/></g><g><g><line class="cls-2" x1="215.7" y1="79.02" x2="216.92" y2="79.02"/><path class="cls-12" d="M219.33,79.02h36.37c5.71,0,10.34,4.63,10.34,10.34v47.49"/><line class="cls-3" x1="266.04" y1="138.06" x2="266.04" y2="139.28"/></g><circle class="cls-90" cx="266.04" cy="139.28" r="2.12"/><circle class="cls-91" cx="215.7" cy="79.02" r="3.16"/></g><g><g><line class="cls-5" x1="219.93" y1="212.02" x2="219.93" y2="213.24"/><line class="cls-21" x1="219.93" y1="215.7" x2="219.93" y2="278.53"/><line class="cls-7" x1="219.93" y1="279.76" x2="219.93" y2="280.98"/></g><circle class="cls-87" cx="220.1" cy="280.98" r="3.16"/><path class="cls-88" d="M219.93,214.14c-1.17,0-2.12-.95-2.12-2.12s.95-2.12,2.12-2.12,2.12,.95,2.12,2.12-.95,2.12-2.12,2.12Z"/></g><g><g><line class="cls-8" x1="365.58" y1="159.92" x2="366.8" y2="159.92"/><path class="cls-15" d="M369.22,159.92h8.81c1.93,0,3.5,1.57,3.5,3.5v13.43"/><line class="cls-6" x1="381.52" y1="178.05" x2="381.52" y2="179.27"/></g><circle class="cls-72" cx="381.52" cy="179.27" r="3.16"/><circle class="cls-71" cx="365.58" cy="159.92" r="2.12"/></g><g><g><line class="cls-11" x1="329.18" y1="212.02" x2="329.18" y2="213.24"/><path class="cls-13" d="M329.18,215.72v79.4c0,5.13,4.16,9.29,9.29,9.29h13.71"/><line class="cls-10" x1="353.41" y1="304.4" x2="354.63" y2="304.4"/></g><circle class="cls-73" cx="329.18" cy="212.02" r="2.12"/><circle class="cls-74" cx="354.63" cy="304.4" r="3.16"/></g></g><g><rect class="cls-16" x="353.23" y="100.54" width="52.4" height="34.06" rx="7.43" ry="7.43"/><g><path class="cls-76" d="M376.05,131.36c-.12,0-.25-.02-.37-.07-.54-.2-.82-.81-.61-1.35l9.49-25.39c.2-.54,.81-.82,1.35-.61,.54,.2,.82,.81,.61,1.35l-9.49,25.39c-.16,.42-.56,.68-.98,.68Z"/><path class="cls-75" d="M372.17,126.97c-.31,0-.63-.12-.87-.36l-7.04-7.04c-1.07-1.07-1.07-2.8,0-3.87l7.19-7.19c.48-.48,1.25-.48,1.73,0,.48,.48,.48,1.25,0,1.73l-7.19,7.19c-.11,.11-.11,.3,0,.41l7.04,7.04c.48,.48,.48,1.25,0,1.73-.24,.24-.55,.36-.87,.36Z"/><path class="cls-50" d="M389.27,126.97c-.31,0-.63-.12-.87-.36-.48-.48-.48-1.25,0-1.73l7.19-7.19c.11-.11,.11-.3,0-.41l-7.04-7.04c-.48-.48-.48-1.25,0-1.73,.48-.48,1.25-.48,1.73,0l7.04,7.04c1.07,1.07,1.07,2.8,0,3.87l-7.19,7.19c-.24,.24-.55,.36-.87,.36Z"/></g></g><g><path class="cls-35" d="M387.12,321.61h16.24s1.42-2.98-.61-6.67c0,0-1.35,1.08-5.38,.35,0,0-1.68,1.43-2.84,1.99-1.17,.57-7.86,1.88-7.41,4.33Z"/><path class="cls-35" d="M432.91,314.35s-2.25,1.16-5.41,.43c0,0-.31,.42-.72,1.56-.33,.91-2.34,2.74-2.72,4.71-.06,.29,.17,.56,.47,.56h9.68c.23,0,.42-.15,.47-.38,.2-.99,.49-3.82-1.76-6.88Z"/><path class="cls-30" d="M397.38,315.29l-.19-5.69,5.98,.13-.41,5.21s-1.24,1.48-5.38,.35Z"/><path class="cls-30" d="M427.5,314.77l-.61-5.17h5.8l.21,4.75s-1.55,1.5-5.41,.43Z"/><path class="cls-48" d="M431.66,268.92c-.82-9.73-1.42-21.25-1.26-23.75,.52-8.07-1.52-19.78-4.72-23.51,0,0-14.96,.66-21.8,1.04-4.76,.27-4.97-1.01-4.96-1.32-.18,1.12-3.02,19.49-4.86,48.48-.05,.79-.09,2.98-.06,3.46,.14,3.17,.64,9.67,1.25,17,.62,7.33,1.6,22.31,1.6,22.31,1.1,.17,4.19,.49,6.64,.32,0,0,1.13-12.07,1.86-17.66,1.14-8.69,.72-23.5,.58-25.76,0,0,4.74-17.13,6.54-23.64l1.44,.39c7.29,33.52,12.39,65.46,12.39,65.46,2.63,.62,5.61,.43,6.98-.08,0,0,2.02-22.92-1.62-42.75Z"/><path class="cls-49" d="M397.65,177.58s-1.97,2.16-4.26,12.64h7.54l-3.28-12.64Z"/><path class="cls-46" d="M398.47,222.46c.19,2.07,6.95,2.93,11.35,2.93,4.96,0,13.38-2.15,15.85-3.73,.62-.4-.53-3.96-.58-9.92-.08-7.92,.83-17.43,1.21-18.56,1.69-4.98,3.25-9.25,2.58-13.22-.77-1.32-1.61-2.41-2.44-3.29-2.48-2.65-8.83-5.23-9.19-5.34-.03,0-3.91,.04-6.46-.04-2.27-.07-2.71-.13-4.33,.04-2.62,1.28-7,3.55-8.8,6.25-1.57,2.36-1.53,5.81-.25,14.31,.43,2.87,1.23,14.32,1.39,22.75,.09,4.61-.41,6.92-.33,7.82Z"/><path class="cls-30" d="M415.85,172.51c-.39-.93,.45-1.33,.26-2.54-.67-4.15-.42-9.52-.42-9.52l-5.11,4.29-2.41,2.03c-.26,1.21-.69,2.75-1.04,4-.37,1.28,.1,2.24,.1,2.24l8.62-.5Z"/><path class="cls-31" d="M413.74,164.74s-2.05,4.52-6.61,6.02c.36-1.25,.78-2.79,1.04-4l2.41-2.03h3.16Z"/><path class="cls-30" d="M402.77,155.63s-.96,10.11,2.34,11.95c1.81,1.01,5.64,.62,8.12-1.7,1.09-1.02,1.74-2.41,2.25-3.81,.83-2.27,2.1-6.49,1.29-9.19-1.06-3.56-11.35-6.6-13.67,.23-.18,.54-.25,1.86-.33,2.52Z"/><path class="cls-34" d="M401.29,151.65c-1.31,1.45-.06,2.71,1.78,3.36,.7,.25,1.55,.43,2.6,.49,2.02,.11,4.74-.24,5.72-.59-.35,1.45-.13,2.49,.57,3.01,.82,.6,3.32,.61,3.36,1.04,.19,2.15,.23,3.83,.37,6.44l.44-.22c.07-.88,4.75-11.04,3.19-15.13-.83-2.18-3.32-1.33-3.32-1.33-1.86-4.8-12.26-6.13-15.4-2.94-1.95,1.98-.29,4.53,.7,5.87Z"/><path class="cls-30" d="M413.51,162c2.6,1.42,4.22-4.52,1.59-5.19-1.72-.44-2.12,1.99-2.12,1.99,0,0-.79,2.48,.53,3.2Z"/><path class="cls-30" d="M437.11,202.72s0,0,0,0c0-5.19-3.66-14.15-4.14-15.21-1.21-2.68-9.63,2.34-9.04,4.3,.71,2.34,4.21,10.27,4.22,10.28-3.68,.88-9.72,2.96-13.36,4.19,0,0-2.4,.67-3.69,.63-1.29-.03-3.06-.68-3.84-.86-.78-.19-3.62,1.63-4.1,1.92-.52,.3-.05,.87,.91,.81,.44-.03,1.17-.23,1.76-.41-.48,.27-.9,.51-1.06,.6-.48,.27-1.42,2.72-1.59,2.99-.17,.27,.91,.41,1.43-.12,.29-.29,.72-.88,1.05-1.36-.33,.7-.61,1.39-.69,1.52-.17,.27,.78,.32,1.31-.2,.36-.36,1.04-1.23,1.44-1.76-.26,.79-.65,2.01-.5,2.1,.22,.12,.74-.01,1.11-.52,.16-.21,.33-.53,.49-.83,.28,.17,.59,.32,.95,.43,2.39,.75,4.27-.94,5.65-1.13h0c2.61-.08,6.64-.2,9.69-.31,5.04-.19,8.12-1.19,10.17-2.09,2.56-1.12,1.84-4.97,1.84-4.97Z"/><path class="cls-33" d="M409.76,207.29c.12-.05,.24-.1,.35-.14-.06,.03-.12,.06-.18,.07-.06,.02-.12,.05-.17,.07Z"/><path class="cls-29" d="M417.25,171.33s.22,.33-.33-.63c-.24-.41-.88-1.22-.88-1.22,0,0-.73,2.23-6.53,3.4l.94,3.5s4.54-1.45,6.8-5.05Z"/><path class="cls-29" d="M407.32,170.1s-.21,.72,.75,1.72c.54,.56,1.43,1.05,1.43,1.05l-1.67,2.97s-1.38-1.39-1.38-4.51c0,0,.09-.23,.35-.59,.11-.15,.51-.63,.51-.63Z"/><path class="cls-29" d="M412.75,213.72h-13.82v-1.7l13.84,.39c.35,0,.64,.3,.64,.65h0c0,.36-.29,.65-.65,.65Z"/><path class="cls-29" d="M404.3,213h-30.89c-1.14,0-2.13-.81-2.34-1.94l-4.64-24.4c-.17-.88,.51-1.69,1.4-1.69h29.17c1.14,0,2.13,.81,2.34,1.94l4.96,26.09Z"/><path class="cls-47" d="M402.07,213.72h-30.03c-.88,0-1.64-.63-1.8-1.49l-4.8-25.25c-.13-.67,.39-1.29,1.07-1.29h30.03c.88,0,1.64,.63,1.8,1.49l4.8,25.25c.13,.67-.39,1.29-1.07,1.29Z"/><path class="cls-44" d="M426.44,176.67s4.63,4.48,6.52,9.6c1.93,5.25,2.55,6.93,2.55,6.93,0,0-4.45,3.99-10.35,4.2,0,0-4.75-8.51-5.26-12.43-.51-3.93,2.04-10.86,6.55-8.3Z"/><path class="cls-32" d="M379.41,213.72h-1.65s-.25,.18-.13,.46c.13,.28,1.01,.57,1.36,.64,1.16,.22,2.28,.02,2.28,.02l-1.87-1.12Z"/><path class="cls-30" d="M386.44,213.23c-.51-.08-1.24-.2-1.24-.2l-1.01-1.1s-.1-.35-.53-1.17c-.51-.98-1.35-1.03-1.22-.28,.02,.14,.05,.32,.09,.5-.11-.23-.24-.47-.39-.72-.64-1.08-1.53-1.17-1.38-.32,.02,.13,.05,.29,.08,.46-.05-.09-.1-.19-.16-.28-.66-1.12-1.58-1.21-1.43-.33,.07,.43,.18,1.07,.3,1.66-.05-.08-.09-.17-.14-.25-.5-.84-1.2-.92-1.08-.25s.32,2.03,.55,2.26c.03,.03,.07,.07,.13,.11h0s.98,1.01,1.27,1.22c.48,.35,1.1,.44,1.1,.44,0,0,.68,.4,1.1,.37s.86-.17,.86-.17c0,0,.28,.12,.79,.19,.51,.07,1.19-.24,1.19-.24,0,0,1.19,.03,1.54-.19,.74-.46,1.06-1.21,1.06-1.21,0,0-.95-.4-1.46-.49Z"/></g><g><path class="cls-45" d="M178.95,76.94h-40.91c-.74,0-1.34-.6-1.34-1.34h0c0-.74,.6-1.34,1.34-1.34h40.91c.74,0,1.34,.6,1.34,1.34h0c0,.74-.6,1.34-1.34,1.34Z"/><path class="cls-42" d="M165.31,82.13h-27.26c-.74,0-1.34-.6-1.34-1.34h0c0-.74,.6-1.34,1.34-1.34h27.26c.74,0,1.34,.6,1.34,1.34h0c0,.74-.6,1.34-1.34,1.34Z"/><path class="cls-43" d="M143.72,87.32h-5.67c-.74,0-1.34-.6-1.34-1.34h0c0-.74,.6-1.34,1.34-1.34h5.67c.74,0,1.34,.6,1.34,1.34h0c0,.74-.6,1.34-1.34,1.34Z"/><path class="cls-41" d="M178.95,87.32h-30.35c-.74,0-1.34-.6-1.34-1.34h0c0-.74,.6-1.34,1.34-1.34h30.35c.74,0,1.34,.6,1.34,1.34h0c0,.74-.6,1.34-1.34,1.34Z"/><path class="cls-68" d="M178.95,82.13h-9.03c-.74,0-1.34-.6-1.34-1.34h0c0-.74,.6-1.34,1.34-1.34h9.03c.74,0,1.34,.6,1.34,1.34h0c0,.74-.6,1.34-1.34,1.34Z"/></g><g><path class="cls-29" d="M138.1,126.77h44.71c4.35,0,7.88,3.53,7.88,7.88v8.45c0,4.35-3.53,7.88-7.88,7.88h-44.71c-4.35,0-7.88-3.53-7.88-7.88v-8.45c0-4.35,3.53-7.88,7.88-7.88Z"/><circle class="cls-70" cx="139.41" cy="132.38" r="1.88"/><circle class="cls-69" cx="139.41" cy="138.87" r="1.88"/><circle class="cls-65" cx="139.41" cy="145.36" r="1.88"/><path class="cls-64" d="M181.82,132.79h-37.17c-.23,0-.41-.18-.41-.41s.18-.41,.41-.41h37.17c.23,0,.41,.18,.41,.41s-.18,.41-.41,.41Z"/><path class="cls-67" d="M181.82,139.28h-37.17c-.23,0-.41-.18-.41-.41s.18-.41,.41-.41h37.17c.23,0,.41,.18,.41,.41s-.18,.41-.41,.41Z"/><path class="cls-66" d="M160.44,145.77h-15.78c-.23,0-.41-.18-.41-.41s.18-.41,.41-.41h15.78c.23,0,.41,.18,.41,.41s-.18,.41-.41,.41Z"/></g><g><g><rect class="cls-62" x="167.15" y="304.68" width="64.34" height="15.15" rx="2.74" ry="2.74"/><g><rect class="cls-61" x="170.89" y="308.05" width="6.06" height="8.41" rx="1.29" ry="1.29"/><rect class="cls-63" x="178.6" y="308.05" width="6.06" height="8.41" rx="1.29" ry="1.29"/><rect class="cls-29" x="186.31" y="308.05" width="22.39" height="8.41" rx="1.29" ry="1.29"/><path class="cls-57" d="M215.19,312.27c0,1.19-.97,2.16-2.16,2.16s-2.16-.97-2.16-2.16,.97-2.16,2.16-2.16,2.16,.97,2.16,2.16Z"/><path class="cls-29" d="M221.09,312.27c0,1.19-.97,2.16-2.16,2.16s-2.16-.97-2.16-2.16,.97-2.16,2.16-2.16,2.16,.97,2.16,2.16Z"/><rect class="cls-58" x="222.36" y="311.32" width="5.4" height="1.88" rx=".85" ry=".85"/></g></g><rect class="cls-59" x="173.92" y="319.83" width="5.41" height="1.8"/><rect class="cls-60" x="219.65" y="319.83" width="5.41" height="1.8"/></g><g><g><rect class="cls-54" x="167.15" y="287.73" width="64.34" height="15.15" rx="2.74" ry="2.74"/><g><rect class="cls-55" x="170.89" y="291.1" width="6.06" height="8.41" rx="1.29" ry="1.29"/><rect class="cls-29" x="178.6" y="291.1" width="6.06" height="8.41" rx="1.29" ry="1.29"/><rect class="cls-29" x="186.31" y="291.1" width="22.39" height="8.41" rx="1.29" ry="1.29"/><path class="cls-56" d="M215.19,295.32c0,1.19-.97,2.16-2.16,2.16s-2.16-.97-2.16-2.16,.97-2.16,2.16-2.16,2.16,.97,2.16,2.16Z"/><path class="cls-51" d="M221.09,295.32c0,1.19-.97,2.16-2.16,2.16s-2.16-.97-2.16-2.16,.97-2.16,2.16-2.16,2.16,.97,2.16,2.16Z"/><rect class="cls-29" x="222.36" y="294.37" width="5.4" height="1.88" rx=".85" ry=".85"/></g></g><rect class="cls-52" x="173.92" y="302.88" width="5.41" height="1.8"/><rect class="cls-53" x="219.65" y="302.88" width="5.41" height="1.8"/></g><line class="cls-17" x1="71.32" y1="322.01" x2="494.54" y2="322.01"/><text class="cls-1" transform="translate(216.48 198.99)"><tspan x="0" y="0">A</tspan><tspan class="cls-40" x="56.4" y="0">P</tspan><tspan x="108.58" y="0">I</tspan></text></g></g></g></svg>